# xmcd CD database file
#
# Track frame offsets:
#	150
#	38580
#	64039
#	95855
#	119517
#	150595
#	197130
#	211530
#	229862
#
# Disc length: 4115 seconds
#
# Revision: 0
# Processed by: cddbd v1.5.1PL2 Copyright (c) Steve Scherf et al.
# Submitted via: CDex 1.51
#
DISCID=74101109
DTITLE=Rahsaan Roland Kirk - Brotherman in the Fatherland
DYEAR=1972
DGENRE=Jazz
TTITLE0=Intro/Like Sonny
TTITLE1=Make It With You
TTITLE2=Rahsaan's Spirit
TTITLE3=My Girl
TTITLE4=Seasons/Serenade to a Cuckoo
TTITLE5=Pedal Up
TTITLE6=Lush Life
TTITLE7=Afro Blue
TTITLE8=Blue Trane
EXTD=YEAR: 1972
EXTT0=
EXTT1=
EXTT2=
EXTT3=
EXTT4=
EXTT5=
EXTT6=
EXTT7=
EXTT8=
PLAYORDER=
